<?xml version="1.0" encoding="UTF-8" standalone="no"?>
<!DOCTYPE svg PUBLIC "-//W3C//DTD SVG 1.1//EN" "http://www.w3.org/Graphics/SVG/1.1/DTD/svg11.dtd">
<svg width="100%" height="100%" viewBox="0 0 48 48" version="1.1" xmlns="http://www.w3.org/2000/svg" xmlns:xlink="http://www.w3.org/1999/xlink" xml:space="preserve" xmlns:serif="http://www.serif.com/" style="fill-rule:evenodd;clip-rule:evenodd;stroke-linejoin:round;stroke-miterlimit:2;">
    <rect id="Artboard1" x="0" y="0" width="48" height="48" style="fill:none;"/>
    <g id="Artboard11" serif:id="Artboard1">
        <g transform="matrix(-1,0,0,1,98.2416,0)">
            <path d="M70.668,34.594L70.671,34.45L70.671,28.5L73.821,28.5L73.821,40.2L62.121,40.2L62.121,37.05L68.321,37.05L68.67,37.064C64.256,34.212 61.548,29.296 61.548,23.978C61.548,15.377 68.531,8.395 77.131,8.395C81.264,8.395 85.228,10.037 88.15,12.959L85.919,15.19C83.589,12.859 80.427,11.55 77.131,11.55C70.272,11.55 64.703,17.119 64.703,23.978C64.703,28.333 66.98,32.35 70.668,34.594Z"/>
        </g>
    </g>
</svg>
